<?xml version="1.0" encoding="utf-8"?>
<!-- Generator: Adobe Illustrator 26.0.2, SVG Export Plug-In . SVG Version: 6.00 Build 0)  -->
<svg version="1.1" id="Layer_1" xmlns="http://www.w3.org/2000/svg" xmlns:xlink="http://www.w3.org/1999/xlink" x="0px" y="0px"
	 viewBox="0 0 180 35.42" style="enable-background:new 0 0 180 35.42;" xml:space="preserve">
<style type="text/css">
	.st0{fill:#EF8044;}
	.st1{fill-rule:evenodd;clip-rule:evenodd;fill:#1CB6DB;}
	.st2{fill-rule:evenodd;clip-rule:evenodd;fill:#70C0B2;}
	.st3{fill-rule:evenodd;clip-rule:evenodd;fill:#FDC901;}
	.st4{fill-rule:evenodd;clip-rule:evenodd;fill:#ED7C3B;}
	.st5{fill:#214357;}
	.st6{fill-rule:evenodd;clip-rule:evenodd;fill:#214357;}
	.st7{fill:#009AB9;}
	.st8{fill:#56A295;}
	.st9{fill:#D3AB03;}
	.st10{fill:#C9672A;}
</style>
<g>
	<g>
		<g>
			<path class="st0" d="M138.28,9.76h1.38l2.92,6.86h-1.57l-0.62-1.53h-2.88l-0.62,1.53h-1.53L138.28,9.76z M139.86,13.77l-0.9-2.21
				l-0.9,2.21H139.86z"/>
			<path class="st0" d="M143.63,9.81h3.11c0.87,0,1.54,0.24,1.98,0.69c0.38,0.38,0.58,0.91,0.58,1.56v0.02
				c0,1.1-0.59,1.79-1.46,2.11l1.66,2.43h-1.75l-1.46-2.18h-0.02h-1.16v2.18h-1.5V9.81z M146.64,13.12c0.73,0,1.15-0.39,1.15-0.96
				v-0.02c0-0.64-0.45-0.97-1.18-0.97h-1.49v1.95H146.64z"/>
			<path class="st0" d="M150.33,12.9h3v1.42h-3V12.9z"/>
			<path class="st0" d="M154.33,13.24v-0.02c0-1.94,1.51-3.52,3.57-3.52c1.23,0,1.96,0.33,2.67,0.93l-0.94,1.14
				c-0.53-0.44-0.99-0.69-1.78-0.69c-1.09,0-1.95,0.96-1.95,2.12v0.02c0,1.24,0.86,2.16,2.06,2.16c0.54,0,1.03-0.14,1.41-0.41v-0.97
				h-1.51V12.7h2.96v2.96c-0.7,0.59-1.66,1.08-2.91,1.08C155.78,16.74,154.33,15.25,154.33,13.24z"/>
			<path class="st0" d="M162.25,9.81h5.13v1.33h-3.65v1.38h3.21v1.33h-3.21v1.43h3.7v1.33h-5.18V9.81z"/>
			<path class="st0" d="M135.95,21.48h1.61l1.79,2.88l1.79-2.88h1.61v6.81h-1.49v-4.44l-1.92,2.91h-0.04l-1.9-2.88v4.41h-1.47V21.48
				z"/>
			<path class="st0" d="M144.39,21.48h5.13v1.33h-3.65v1.38h3.21v1.33h-3.21v1.43h3.7v1.33h-5.18V21.48z"/>
			<path class="st0" d="M150.9,21.48h3.11c0.87,0,1.54,0.24,1.98,0.69c0.38,0.38,0.58,0.91,0.58,1.56v0.02
				c0,1.1-0.59,1.79-1.46,2.11l1.66,2.43h-1.75l-1.46-2.18h-0.02h-1.16v2.18h-1.5V21.48z M153.92,24.79c0.73,0,1.15-0.39,1.15-0.96
				v-0.02c0-0.64-0.45-0.97-1.18-0.97h-1.49v1.95H153.92z"/>
			<path class="st0" d="M157.93,21.48h1.5v2.98l2.76-2.98H164l-2.77,2.89l2.9,3.92h-1.8l-2.11-2.9l-0.79,0.82v2.08h-1.5V21.48z"/>
			<path class="st0" d="M165.03,21.48h5.13v1.33h-3.65v1.38h3.21v1.33h-3.21v1.43h3.7v1.33h-5.18V21.48z"/>
			<path class="st0" d="M171.35,27.15l3.74-4.36h-3.63v-1.31h5.55v1.14l-3.74,4.36h3.74v1.31h-5.67V27.15z"/>
			<path class="st0" d="M178.5,21.48h1.5v6.81h-1.5V21.48z M178.52,19.6h1.46v1.31h-1.46V19.6z"/>
		</g>
		<rect x="129.35" y="4.69" class="st0" width="1.33" height="28.96"/>
	</g>
	<g>
		<path class="st1" d="M1.65,9.69L1.65,9.69c0.91,0,1.65,0.74,1.65,1.65v6.72c0,0.91-0.74,1.65-1.65,1.65h0
			C0.74,19.7,0,18.96,0,18.06v-6.72C0,10.43,0.74,9.69,1.65,9.69"/>
		<path class="st2" d="M6.49,6.73L6.49,6.73c0.91,0,1.65,0.74,1.65,1.65v9.68c0,0.91-0.74,1.65-1.65,1.65h0
			c-0.91,0-1.65-0.74-1.65-1.65V8.38C4.84,7.47,5.58,6.73,6.49,6.73"/>
		<path class="st3" d="M11.32,3.66L11.32,3.66c0.91,0,1.65,0.74,1.65,1.65v12.75c0,0.91-0.74,1.65-1.65,1.65h0
			c-0.91,0-1.65-0.74-1.65-1.65V5.31C9.68,4.4,10.42,3.66,11.32,3.66"/>
		<path class="st4" d="M16.16,0.59L16.16,0.59c0.91,0,1.65,0.74,1.65,1.65v15.82c0,0.91-0.74,1.65-1.65,1.65h0
			c-0.91,0-1.65-0.74-1.65-1.65V2.24C14.52,1.33,15.26,0.59,16.16,0.59"/>
		<path class="st5" d="M103.24,33.51c0,0.08-0.06,0.14-0.16,0.15c-0.09,0.01-0.19,0.02-0.3,0.03c-0.11,0.01-0.21,0.01-0.29,0.01
			c-0.21,0-0.4-0.02-0.55-0.05c-0.16-0.03-0.28-0.1-0.38-0.19c-0.1-0.09-0.18-0.21-0.23-0.37c-0.05-0.16-0.08-0.36-0.08-0.61v-3.16
			l-0.89-0.1c-0.12-0.01-0.17-0.07-0.17-0.16v-0.24c0-0.11,0.06-0.16,0.17-0.16h0.89v-0.89c0-0.1,0.06-0.16,0.16-0.18l0.48-0.07
			h0.03c0.04,0,0.07,0.01,0.1,0.04c0.03,0.03,0.04,0.06,0.04,0.11v0.99h0.99c0.05,0,0.09,0.02,0.13,0.05
			c0.04,0.04,0.06,0.08,0.06,0.13v0.31c0,0.05-0.02,0.09-0.06,0.13c-0.04,0.04-0.08,0.05-0.13,0.05h-0.99v3.16
			c0,0.25,0.04,0.4,0.11,0.47c0.07,0.07,0.2,0.1,0.38,0.1h0.51c0.13,0,0.19,0.04,0.19,0.13V33.51z M98.74,31.24h-0.68
			c-0.27,0-0.5,0.02-0.69,0.05c-0.18,0.03-0.33,0.08-0.43,0.15c-0.1,0.07-0.18,0.16-0.22,0.27c-0.04,0.11-0.06,0.25-0.06,0.41v0.11
			c0,0.33,0.07,0.54,0.22,0.66c0.15,0.11,0.35,0.17,0.62,0.17c0.21,0,0.42-0.03,0.61-0.09c0.2-0.06,0.4-0.15,0.62-0.27V31.24z
			 M99.55,33.47c0,0.05-0.02,0.09-0.06,0.13c-0.04,0.04-0.08,0.05-0.13,0.05h-0.42c-0.05,0-0.09-0.02-0.13-0.05
			c-0.04-0.04-0.05-0.08-0.05-0.13v-0.2c-0.22,0.13-0.45,0.23-0.68,0.32c-0.23,0.08-0.48,0.13-0.73,0.13c-0.2,0-0.38-0.02-0.56-0.07
			c-0.18-0.05-0.34-0.13-0.48-0.24c-0.14-0.11-0.25-0.27-0.33-0.45c-0.08-0.19-0.12-0.42-0.12-0.71v-0.11
			c0-0.24,0.04-0.45,0.11-0.64c0.08-0.18,0.2-0.34,0.38-0.46c0.17-0.12,0.4-0.22,0.68-0.28c0.28-0.06,0.63-0.09,1.03-0.09h0.68
			v-0.36c0-0.38-0.07-0.65-0.22-0.8c-0.15-0.15-0.4-0.23-0.76-0.23c-0.3,0-0.56,0.01-0.79,0.02c-0.23,0.02-0.43,0.03-0.61,0.05
			h-0.05c-0.04,0-0.08-0.01-0.11-0.03c-0.03-0.02-0.05-0.06-0.05-0.12V28.9c0-0.1,0.06-0.15,0.19-0.17
			c0.19-0.03,0.39-0.06,0.62-0.08c0.22-0.02,0.49-0.04,0.8-0.04c0.63,0,1.09,0.15,1.37,0.45c0.28,0.3,0.42,0.72,0.42,1.25V33.47z
			 M95.42,29.14c0,0.1-0.06,0.15-0.19,0.15c-0.21,0-0.42,0.03-0.62,0.09c-0.2,0.06-0.41,0.16-0.64,0.29v3.79
			c0,0.05-0.02,0.09-0.05,0.13c-0.04,0.04-0.08,0.05-0.13,0.05h-0.45c-0.05,0-0.09-0.02-0.12-0.05c-0.03-0.04-0.05-0.08-0.05-0.13
			v-4.61c0-0.05,0.02-0.09,0.05-0.13c0.03-0.04,0.07-0.05,0.12-0.05h0.43c0.05,0,0.09,0.02,0.12,0.05c0.03,0.04,0.05,0.08,0.05,0.13
			v0.19c0.23-0.16,0.45-0.27,0.66-0.33c0.21-0.07,0.42-0.1,0.63-0.1c0.13,0,0.19,0.05,0.19,0.16V29.14z M91.25,30.73
			c0-0.51-0.1-0.88-0.3-1.09c-0.2-0.22-0.5-0.33-0.9-0.33c-0.4,0-0.7,0.11-0.91,0.34c-0.21,0.23-0.32,0.59-0.32,1.08v0.08h2.42
			V30.73z M92.07,31.21c0,0.13-0.06,0.2-0.17,0.2h-3.06v0.13c0,0.54,0.11,0.92,0.32,1.14c0.21,0.22,0.53,0.33,0.95,0.33
			c0.27,0,0.55-0.01,0.86-0.03c0.3-0.02,0.56-0.04,0.77-0.07h0.05c0.04,0,0.07,0.01,0.1,0.03c0.03,0.02,0.05,0.05,0.05,0.1v0.31
			c0,0.06-0.01,0.11-0.04,0.14c-0.02,0.03-0.07,0.06-0.15,0.07c-0.26,0.05-0.52,0.09-0.78,0.11c-0.26,0.03-0.54,0.04-0.86,0.04
			c-0.26,0-0.52-0.03-0.77-0.1c-0.25-0.07-0.47-0.19-0.66-0.35c-0.19-0.17-0.35-0.39-0.47-0.66c-0.12-0.28-0.18-0.63-0.18-1.05
			v-0.81c0-0.65,0.17-1.17,0.52-1.55c0.35-0.38,0.85-0.57,1.51-0.57c0.34,0,0.63,0.05,0.88,0.15c0.25,0.1,0.46,0.24,0.63,0.43
			c0.17,0.18,0.29,0.41,0.38,0.67c0.09,0.26,0.13,0.55,0.13,0.87V31.21z M86.31,30.84c0-0.24-0.02-0.45-0.06-0.64
			c-0.04-0.19-0.11-0.36-0.2-0.49c-0.09-0.14-0.21-0.24-0.37-0.32c-0.15-0.08-0.34-0.11-0.57-0.11c-0.2,0-0.39,0.01-0.59,0.03
			c-0.2,0.02-0.36,0.04-0.48,0.06v3.58c0.15,0.03,0.33,0.05,0.54,0.07c0.21,0.02,0.38,0.02,0.53,0.02c0.23,0,0.41-0.03,0.57-0.1
			c0.15-0.07,0.27-0.17,0.37-0.3c0.09-0.13,0.16-0.3,0.2-0.49c0.04-0.19,0.06-0.41,0.06-0.65V30.84z M87.11,31.49
			c0,0.71-0.16,1.26-0.49,1.64c-0.33,0.38-0.83,0.57-1.5,0.57c-0.14,0-0.31-0.01-0.51-0.03c-0.2-0.02-0.39-0.04-0.56-0.07v1.64
			c0,0.05-0.02,0.09-0.05,0.12c-0.03,0.03-0.07,0.05-0.12,0.05h-0.47c-0.05,0-0.09-0.02-0.12-0.05c-0.03-0.03-0.05-0.07-0.05-0.12
			v-6.22c0-0.06,0.01-0.11,0.03-0.14c0.02-0.03,0.07-0.05,0.16-0.07c0.24-0.06,0.52-0.11,0.81-0.15c0.3-0.04,0.59-0.06,0.87-0.06
			c0.34,0,0.64,0.05,0.89,0.16c0.25,0.11,0.46,0.26,0.62,0.45c0.16,0.2,0.29,0.43,0.37,0.71c0.08,0.27,0.12,0.58,0.12,0.92V31.49z
			 M81.23,29.7c0-0.38-0.04-0.7-0.11-0.97c-0.08-0.27-0.18-0.48-0.32-0.65c-0.14-0.17-0.31-0.29-0.51-0.37
			c-0.2-0.08-0.43-0.11-0.68-0.11c-0.25,0-0.48,0.04-0.68,0.11c-0.2,0.08-0.37,0.2-0.52,0.37c-0.14,0.17-0.25,0.39-0.33,0.65
			C78,29,77.96,29.32,77.96,29.7v1.17c0,0.38,0.04,0.7,0.11,0.97c0.08,0.27,0.18,0.48,0.32,0.65c0.14,0.17,0.31,0.29,0.52,0.37
			c0.2,0.08,0.43,0.11,0.68,0.11c0.25,0,0.48-0.04,0.68-0.11c0.2-0.08,0.37-0.2,0.51-0.37c0.14-0.17,0.25-0.39,0.32-0.65
			c0.08-0.27,0.11-0.59,0.11-0.97V29.7z M82.07,30.87c0,0.5-0.06,0.93-0.18,1.29c-0.12,0.36-0.29,0.65-0.51,0.88
			c-0.22,0.23-0.48,0.4-0.78,0.51c-0.3,0.11-0.63,0.16-0.99,0.16c-0.36,0-0.69-0.05-0.99-0.16c-0.3-0.11-0.56-0.28-0.78-0.51
			c-0.22-0.23-0.39-0.52-0.52-0.88c-0.12-0.36-0.19-0.79-0.19-1.29V29.7c0-0.5,0.06-0.93,0.19-1.29c0.13-0.36,0.3-0.65,0.52-0.88
			c0.22-0.23,0.48-0.4,0.78-0.51c0.3-0.11,0.63-0.16,0.99-0.16c0.36,0,0.69,0.05,0.99,0.16c0.3,0.11,0.56,0.28,0.78,0.51
			c0.22,0.23,0.39,0.52,0.51,0.88c0.12,0.36,0.18,0.79,0.18,1.29V30.87z M73.69,33.47c0,0.05-0.02,0.09-0.05,0.13
			c-0.04,0.04-0.08,0.05-0.13,0.05h-0.44c-0.05,0-0.09-0.02-0.13-0.05s-0.05-0.08-0.05-0.13v-3.2c0-0.19-0.02-0.34-0.06-0.47
			c-0.04-0.13-0.1-0.23-0.17-0.3c-0.07-0.07-0.16-0.12-0.27-0.15c-0.1-0.03-0.21-0.05-0.33-0.05c-0.16,0-0.34,0.02-0.53,0.07
			c-0.19,0.05-0.37,0.11-0.54,0.17c0.05,0.2,0.08,0.43,0.08,0.71v3.22c0,0.05-0.02,0.09-0.05,0.13c-0.03,0.04-0.07,0.05-0.12,0.05
			h-0.48c-0.05,0-0.09-0.02-0.11-0.05c-0.03-0.04-0.04-0.08-0.04-0.13v-3.22c0-0.2-0.01-0.36-0.04-0.48
			c-0.03-0.12-0.07-0.22-0.13-0.29c-0.06-0.07-0.14-0.12-0.22-0.14c-0.09-0.02-0.19-0.04-0.31-0.04c-0.16,0-0.34,0.03-0.54,0.1
			c-0.19,0.07-0.39,0.15-0.58,0.25v3.82c0,0.05-0.02,0.09-0.05,0.13c-0.03,0.04-0.07,0.05-0.12,0.05h-0.48
			c-0.05,0-0.09-0.02-0.11-0.05c-0.03-0.04-0.04-0.08-0.04-0.13v-4.61c0-0.05,0.02-0.09,0.05-0.13c0.03-0.04,0.07-0.05,0.12-0.05
			h0.46c0.05,0,0.09,0.02,0.12,0.05c0.03,0.04,0.05,0.08,0.05,0.13v0.17c0.18-0.11,0.39-0.21,0.61-0.3
			c0.23-0.08,0.47-0.13,0.72-0.13c0.2,0,0.37,0.03,0.52,0.09c0.15,0.06,0.28,0.15,0.4,0.29c0.26-0.12,0.51-0.21,0.77-0.28
			c0.26-0.06,0.51-0.09,0.75-0.09c0.21,0,0.4,0.03,0.58,0.08c0.18,0.05,0.34,0.15,0.47,0.28c0.13,0.13,0.24,0.3,0.32,0.52
			c0.08,0.21,0.11,0.48,0.11,0.79V33.47z M65.75,30.82c0-0.46-0.1-0.83-0.29-1.1c-0.19-0.27-0.51-0.41-0.94-0.41
			c-0.43,0-0.74,0.13-0.93,0.4c-0.2,0.27-0.29,0.64-0.29,1.11v0.69c0,0.46,0.1,0.83,0.29,1.1c0.19,0.27,0.5,0.41,0.94,0.41
			c0.43,0,0.74-0.13,0.94-0.4c0.2-0.27,0.3-0.64,0.3-1.11V30.82z M66.56,31.5c0,0.33-0.04,0.63-0.13,0.9
			c-0.09,0.27-0.21,0.5-0.38,0.7c-0.17,0.19-0.38,0.34-0.64,0.45c-0.26,0.11-0.55,0.16-0.89,0.16c-0.34,0-0.63-0.05-0.88-0.16
			c-0.25-0.11-0.46-0.25-0.64-0.45c-0.17-0.19-0.3-0.42-0.38-0.7c-0.09-0.27-0.13-0.57-0.13-0.9v-0.69c0-0.33,0.04-0.63,0.13-0.9
			c0.09-0.27,0.21-0.5,0.38-0.7c0.17-0.19,0.38-0.34,0.64-0.45c0.25-0.11,0.55-0.16,0.88-0.16c0.34,0,0.63,0.05,0.89,0.16
			c0.26,0.11,0.47,0.25,0.64,0.45c0.17,0.19,0.3,0.43,0.38,0.7c0.09,0.27,0.13,0.57,0.13,0.9V31.5z M62,33.53
			c0,0.08-0.03,0.12-0.1,0.12h-0.66c-0.05,0-0.09-0.01-0.11-0.02c-0.03-0.02-0.06-0.05-0.1-0.09l-1.82-2.23v2.16
			c0,0.05-0.02,0.09-0.05,0.13c-0.04,0.04-0.08,0.05-0.13,0.05h-0.44c-0.05,0-0.09-0.02-0.13-0.05c-0.04-0.04-0.05-0.08-0.05-0.13
			v-6.44c0-0.05,0.02-0.09,0.05-0.13c0.04-0.04,0.08-0.05,0.13-0.05h0.44c0.05,0,0.09,0.02,0.13,0.05c0.04,0.04,0.05,0.08,0.05,0.13
			v3.76l1.83-2.04c0.03-0.03,0.06-0.05,0.08-0.06c0.02-0.01,0.06-0.02,0.11-0.02h0.64c0.09,0,0.14,0.03,0.14,0.1
			c0,0.04-0.02,0.07-0.05,0.1l-2.01,2.15l2.03,2.42C61.99,33.47,62,33.49,62,33.53z M56.5,30.73c0-0.51-0.1-0.88-0.3-1.09
			c-0.2-0.22-0.5-0.33-0.9-0.33c-0.4,0-0.7,0.11-0.91,0.34c-0.21,0.23-0.32,0.59-0.32,1.08v0.08h2.42V30.73z M57.31,31.21
			c0,0.13-0.06,0.2-0.17,0.2h-3.06v0.13c0,0.54,0.11,0.92,0.32,1.14c0.21,0.22,0.53,0.33,0.95,0.33c0.27,0,0.55-0.01,0.86-0.03
			c0.3-0.02,0.56-0.04,0.77-0.07h0.05c0.04,0,0.07,0.01,0.1,0.03c0.03,0.02,0.05,0.05,0.05,0.1v0.31c0,0.06-0.01,0.11-0.04,0.14
			c-0.02,0.03-0.07,0.06-0.15,0.07c-0.26,0.05-0.52,0.09-0.78,0.11c-0.26,0.03-0.54,0.04-0.86,0.04c-0.26,0-0.52-0.03-0.77-0.1
			c-0.25-0.07-0.47-0.19-0.66-0.35c-0.19-0.17-0.35-0.39-0.47-0.66c-0.12-0.28-0.18-0.63-0.18-1.05v-0.81
			c0-0.65,0.17-1.17,0.52-1.55c0.35-0.38,0.85-0.57,1.51-0.57c0.34,0,0.63,0.05,0.88,0.15c0.25,0.1,0.46,0.24,0.63,0.43
			c0.17,0.18,0.29,0.41,0.38,0.67c0.09,0.26,0.13,0.55,0.13,0.87V31.21z M52.1,33.47c0,0.05-0.02,0.09-0.05,0.13
			c-0.03,0.04-0.07,0.05-0.12,0.05h-0.48c-0.05,0-0.09-0.02-0.12-0.05c-0.03-0.04-0.05-0.08-0.05-0.13v-6.45
			c0-0.05,0.02-0.09,0.05-0.12c0.03-0.03,0.07-0.05,0.12-0.05h0.48c0.05,0,0.09,0.02,0.12,0.05c0.03,0.03,0.05,0.07,0.05,0.12V33.47
			z M49.29,30.73c0-0.51-0.1-0.88-0.3-1.09c-0.2-0.22-0.5-0.33-0.9-0.33c-0.4,0-0.7,0.11-0.91,0.34c-0.21,0.23-0.32,0.59-0.32,1.08
			v0.08h2.42V30.73z M50.1,31.21c0,0.13-0.06,0.2-0.17,0.2h-3.06v0.13c0,0.54,0.11,0.92,0.32,1.14c0.21,0.22,0.53,0.33,0.95,0.33
			c0.27,0,0.55-0.01,0.86-0.03c0.3-0.02,0.56-0.04,0.77-0.07h0.05c0.04,0,0.07,0.01,0.1,0.03c0.03,0.02,0.05,0.05,0.05,0.1v0.31
			c0,0.06-0.01,0.11-0.04,0.14c-0.02,0.03-0.07,0.06-0.15,0.07c-0.26,0.05-0.52,0.09-0.78,0.11c-0.26,0.03-0.54,0.04-0.86,0.04
			c-0.26,0-0.52-0.03-0.77-0.1c-0.25-0.07-0.47-0.19-0.66-0.35c-0.19-0.17-0.35-0.39-0.47-0.66c-0.12-0.28-0.18-0.63-0.18-1.05
			v-0.81c0-0.65,0.17-1.17,0.52-1.55c0.35-0.38,0.85-0.57,1.51-0.57c0.34,0,0.63,0.05,0.88,0.15c0.25,0.1,0.46,0.24,0.63,0.43
			c0.17,0.18,0.29,0.41,0.38,0.67c0.09,0.26,0.13,0.55,0.13,0.87V31.21z M46.02,27.49c0,0.1-0.06,0.14-0.17,0.14h-1.78v5.83
			c0,0.05-0.02,0.09-0.05,0.13c-0.03,0.04-0.07,0.05-0.12,0.05h-0.5c-0.05,0-0.09-0.02-0.12-0.05c-0.03-0.04-0.05-0.08-0.05-0.13
			v-5.83h-1.78c-0.05,0-0.09-0.01-0.13-0.04c-0.04-0.02-0.05-0.06-0.05-0.11v-0.4c0-0.05,0.02-0.09,0.05-0.12
			c0.04-0.03,0.08-0.05,0.13-0.05h4.4c0.12,0,0.17,0.05,0.17,0.16V27.49z M37.97,33.47c0,0.05-0.02,0.09-0.05,0.13
			c-0.03,0.04-0.07,0.05-0.12,0.05h-0.48c-0.05,0-0.09-0.02-0.12-0.05c-0.03-0.04-0.05-0.08-0.05-0.13v-6.45
			c0-0.05,0.02-0.09,0.05-0.12c0.03-0.03,0.07-0.05,0.12-0.05h0.48c0.05,0,0.09,0.02,0.12,0.05c0.03,0.03,0.05,0.07,0.05,0.12V33.47
			z M35.72,33.47c0,0.05-0.02,0.09-0.05,0.13c-0.04,0.04-0.08,0.05-0.13,0.05h-0.44c-0.05,0-0.09-0.02-0.13-0.05
			c-0.04-0.04-0.06-0.08-0.06-0.13v-4.61c0-0.05,0.02-0.09,0.06-0.13c0.04-0.04,0.08-0.05,0.13-0.05h0.44
			c0.05,0,0.09,0.02,0.13,0.05c0.04,0.04,0.05,0.08,0.05,0.13V33.47z M35.74,27.7c0,0.05-0.02,0.09-0.06,0.13
			c-0.04,0.04-0.08,0.05-0.13,0.05h-0.47c-0.05,0-0.09-0.02-0.13-0.05c-0.04-0.04-0.05-0.08-0.05-0.13v-0.72
			c0-0.05,0.02-0.09,0.05-0.13c0.04-0.04,0.08-0.05,0.13-0.05h0.47c0.05,0,0.09,0.02,0.13,0.05c0.04,0.04,0.06,0.08,0.06,0.13V27.7z
			 M33.73,32.4c0,0.23-0.04,0.43-0.12,0.59c-0.08,0.17-0.2,0.3-0.35,0.41c-0.15,0.11-0.33,0.18-0.54,0.24
			c-0.21,0.05-0.44,0.08-0.7,0.08c-0.09,0-0.19,0-0.31,0c-0.12,0-0.24-0.01-0.38-0.02c-0.13-0.01-0.26-0.03-0.4-0.04
			c-0.13-0.02-0.26-0.04-0.37-0.07c-0.13-0.03-0.19-0.09-0.19-0.18v-0.32c0-0.04,0.02-0.08,0.05-0.1c0.03-0.02,0.07-0.04,0.12-0.04
			h0.04c0.11,0.01,0.23,0.02,0.36,0.04c0.13,0.01,0.26,0.02,0.4,0.03c0.13,0.01,0.26,0.02,0.37,0.02c0.12,0.01,0.22,0.01,0.3,0.01
			c0.3,0,0.52-0.05,0.68-0.14c0.15-0.09,0.23-0.26,0.23-0.51c0-0.14-0.05-0.26-0.15-0.36c-0.1-0.1-0.28-0.23-0.54-0.39l-0.92-0.54
			c-0.28-0.17-0.51-0.35-0.68-0.56c-0.17-0.2-0.26-0.45-0.26-0.74c0-0.24,0.04-0.43,0.13-0.58c0.09-0.15,0.2-0.28,0.35-0.37
			c0.15-0.09,0.32-0.16,0.52-0.19c0.2-0.04,0.42-0.05,0.66-0.05c0.26,0,0.5,0.01,0.75,0.03c0.24,0.02,0.47,0.05,0.68,0.09
			c0.12,0.02,0.17,0.08,0.17,0.18v0.3c0,0.1-0.05,0.15-0.16,0.15h-0.03c-0.16-0.01-0.37-0.03-0.64-0.05
			c-0.27-0.02-0.53-0.03-0.78-0.03c-0.26,0-0.46,0.03-0.62,0.09c-0.16,0.06-0.23,0.2-0.23,0.43c0,0.14,0.05,0.26,0.16,0.36
			c0.1,0.1,0.26,0.21,0.48,0.33l0.91,0.53c0.38,0.22,0.64,0.44,0.79,0.65C33.66,31.9,33.73,32.13,33.73,32.4z M28.64,30.73
			c0-0.51-0.1-0.88-0.3-1.09c-0.2-0.22-0.5-0.33-0.9-0.33c-0.4,0-0.7,0.11-0.91,0.34c-0.21,0.23-0.32,0.59-0.32,1.08v0.08h2.42
			V30.73z M29.45,31.21c0,0.13-0.06,0.2-0.17,0.2h-3.06v0.13c0,0.54,0.11,0.92,0.32,1.14c0.21,0.22,0.53,0.33,0.95,0.33
			c0.27,0,0.55-0.01,0.86-0.03c0.3-0.02,0.56-0.04,0.77-0.07h0.05c0.04,0,0.07,0.01,0.1,0.03c0.03,0.02,0.05,0.05,0.05,0.1v0.31
			c0,0.06-0.01,0.11-0.04,0.14c-0.02,0.03-0.07,0.06-0.15,0.07c-0.26,0.05-0.52,0.09-0.78,0.11c-0.26,0.03-0.54,0.04-0.86,0.04
			c-0.26,0-0.52-0.03-0.77-0.1c-0.25-0.07-0.47-0.19-0.66-0.35c-0.19-0.17-0.35-0.39-0.47-0.66c-0.12-0.28-0.18-0.63-0.18-1.05
			v-0.81c0-0.65,0.17-1.17,0.52-1.55c0.35-0.38,0.85-0.57,1.51-0.57c0.34,0,0.63,0.05,0.88,0.15c0.25,0.1,0.46,0.24,0.63,0.43
			c0.17,0.18,0.29,0.41,0.38,0.67c0.09,0.26,0.13,0.55,0.13,0.87V31.21z M24.24,33.39c0,0.07-0.03,0.13-0.08,0.19
			c-0.05,0.05-0.11,0.08-0.19,0.08h-0.57c-0.15,0-0.24-0.05-0.29-0.14l-2.83-5.31c-0.01-0.02-0.02-0.03-0.03-0.03
			c-0.01,0-0.01,0.01-0.01,0.03v5.28c0,0.05-0.02,0.09-0.05,0.12c-0.03,0.03-0.07,0.05-0.12,0.05h-0.48c-0.05,0-0.09-0.01-0.12-0.02
			c-0.03-0.01-0.05-0.04-0.05-0.09v-6.36c0-0.07,0.03-0.13,0.08-0.18c0.05-0.05,0.11-0.07,0.19-0.07h0.5c0.13,0,0.21,0.01,0.26,0.04
			c0.04,0.03,0.08,0.07,0.12,0.14l2.81,5.28l0.02,0.03c0.01,0,0.01-0.01,0.01-0.03V27.1c0-0.05,0.02-0.09,0.05-0.12
			c0.03-0.03,0.07-0.05,0.12-0.05h0.48c0.05,0,0.09,0.02,0.12,0.05c0.03,0.03,0.05,0.07,0.05,0.12V33.39z M15.74,33.47
			c0,0.05-0.02,0.09-0.05,0.13c-0.04,0.04-0.08,0.05-0.13,0.05h-0.44c-0.05,0-0.09-0.02-0.13-0.05c-0.04-0.04-0.05-0.08-0.05-0.13
			v-4.61c0-0.05,0.02-0.09,0.05-0.13c0.04-0.04,0.08-0.05,0.13-0.05h0.44c0.05,0,0.09,0.02,0.13,0.05c0.04,0.04,0.05,0.08,0.05,0.13
			V33.47z M15.76,27.7c0,0.05-0.02,0.09-0.05,0.13c-0.04,0.04-0.08,0.05-0.13,0.05h-0.47c-0.05,0-0.09-0.02-0.13-0.05
			c-0.04-0.04-0.06-0.08-0.06-0.13v-0.72c0-0.05,0.02-0.09,0.06-0.13c0.04-0.04,0.08-0.05,0.13-0.05h0.47
			c0.05,0,0.09,0.02,0.13,0.05c0.04,0.04,0.05,0.08,0.05,0.13V27.7z M13.59,33.47c0,0.05-0.02,0.09-0.05,0.13
			c-0.04,0.04-0.08,0.05-0.13,0.05h-0.44c-0.05,0-0.09-0.02-0.13-0.05c-0.04-0.04-0.05-0.08-0.05-0.13v-2.98
			c0-0.23-0.02-0.42-0.06-0.57c-0.04-0.15-0.1-0.28-0.18-0.37c-0.08-0.09-0.19-0.16-0.32-0.19c-0.13-0.04-0.28-0.06-0.45-0.06
			c-0.19,0-0.4,0.03-0.6,0.1c-0.21,0.07-0.42,0.15-0.63,0.25v3.82c0,0.05-0.02,0.09-0.06,0.13c-0.04,0.04-0.08,0.05-0.13,0.05H9.91
			c-0.05,0-0.09-0.02-0.12-0.05c-0.03-0.04-0.05-0.08-0.05-0.13v-4.61c0-0.05,0.02-0.09,0.05-0.13c0.03-0.04,0.07-0.05,0.12-0.05
			h0.46c0.05,0,0.09,0.02,0.12,0.05c0.03,0.04,0.05,0.08,0.05,0.13v0.17c0.26-0.14,0.49-0.24,0.71-0.31c0.22-0.07,0.47-0.1,0.74-0.1
			c0.55,0,0.96,0.16,1.21,0.49c0.25,0.33,0.38,0.79,0.38,1.39V33.47z M7.83,30.73c0-0.51-0.1-0.88-0.3-1.09
			c-0.2-0.22-0.5-0.33-0.9-0.33c-0.4,0-0.7,0.11-0.91,0.34c-0.21,0.23-0.32,0.59-0.32,1.08v0.08h2.42V30.73z M8.64,31.21
			c0,0.13-0.06,0.2-0.17,0.2H5.41v0.13c0,0.54,0.11,0.92,0.32,1.14c0.21,0.22,0.53,0.33,0.95,0.33c0.27,0,0.55-0.01,0.86-0.03
			c0.3-0.02,0.56-0.04,0.77-0.07h0.05c0.04,0,0.07,0.01,0.1,0.03c0.03,0.02,0.05,0.05,0.05,0.1v0.31c0,0.06-0.01,0.11-0.04,0.14
			c-0.02,0.03-0.07,0.06-0.15,0.07c-0.26,0.05-0.52,0.09-0.78,0.11c-0.26,0.03-0.54,0.04-0.86,0.04c-0.26,0-0.52-0.03-0.77-0.1
			c-0.25-0.07-0.47-0.19-0.66-0.35c-0.19-0.17-0.35-0.39-0.47-0.66c-0.12-0.28-0.18-0.63-0.18-1.05v-0.81
			c0-0.65,0.17-1.17,0.52-1.55c0.35-0.38,0.85-0.57,1.51-0.57c0.34,0,0.63,0.05,0.88,0.15c0.25,0.1,0.46,0.24,0.63,0.43
			c0.17,0.18,0.29,0.41,0.38,0.67c0.09,0.26,0.13,0.55,0.13,0.87V31.21z M4.7,27.05c0,0.03-0.01,0.06-0.03,0.1L3.26,30.3
			c-0.09,0.18-0.17,0.32-0.25,0.41c-0.08,0.09-0.16,0.15-0.25,0.19v2.57c0,0.05-0.02,0.09-0.05,0.13c-0.03,0.04-0.07,0.05-0.12,0.05
			h-0.5c-0.05,0-0.09-0.02-0.12-0.05c-0.03-0.04-0.05-0.08-0.05-0.13V30.9c-0.09-0.03-0.17-0.09-0.25-0.19
			c-0.08-0.09-0.16-0.23-0.25-0.41l-1.41-3.15C0.01,27.12,0,27.08,0,27.05c0-0.08,0.05-0.13,0.16-0.13h0.56
			c0.03,0,0.06,0.01,0.1,0.04c0.03,0.03,0.06,0.06,0.07,0.09l1.26,2.93c0.05,0.1,0.09,0.17,0.12,0.19c0.03,0.03,0.06,0.04,0.09,0.04
			c0.03,0,0.06-0.01,0.09-0.04c0.03-0.03,0.07-0.09,0.12-0.19l1.27-2.93c0.01-0.03,0.03-0.06,0.06-0.09
			c0.03-0.03,0.06-0.04,0.1-0.04h0.56C4.65,26.93,4.7,26.97,4.7,27.05z"/>
		<path class="st5" d="M113.69,27.68c0,0.05-0.02,0.09-0.05,0.12c-0.04,0.03-0.08,0.05-0.13,0.05h-0.36c-0.05,0-0.09-0.02-0.13-0.05
			c-0.04-0.03-0.05-0.07-0.05-0.12v-0.73c0-0.05,0.02-0.09,0.05-0.13c0.04-0.04,0.08-0.05,0.13-0.05h0.36
			c0.05,0,0.09,0.02,0.13,0.05s0.05,0.08,0.05,0.13V27.68z M115.29,27.68c0,0.05-0.02,0.09-0.05,0.12
			c-0.04,0.03-0.08,0.05-0.13,0.05h-0.36c-0.05,0-0.09-0.02-0.13-0.05c-0.04-0.03-0.06-0.07-0.06-0.12v-0.73
			c0-0.05,0.02-0.09,0.06-0.13c0.04-0.04,0.08-0.05,0.13-0.05h0.36c0.05,0,0.09,0.02,0.13,0.05c0.04,0.04,0.05,0.08,0.05,0.13V27.68
			z M116.06,33.47c0,0.05-0.02,0.09-0.05,0.13c-0.03,0.04-0.07,0.05-0.12,0.05h-0.46c-0.05,0-0.09-0.02-0.12-0.05
			c-0.03-0.04-0.05-0.08-0.05-0.13v-0.17c-0.26,0.14-0.49,0.24-0.71,0.31c-0.22,0.07-0.47,0.1-0.74,0.1c-0.55,0-0.96-0.16-1.21-0.49
			c-0.25-0.33-0.38-0.79-0.38-1.39v-2.98c0-0.05,0.02-0.09,0.05-0.13c0.04-0.04,0.08-0.05,0.13-0.05h0.44
			c0.05,0,0.09,0.02,0.13,0.05c0.04,0.04,0.06,0.08,0.06,0.13v2.98c0,0.23,0.02,0.42,0.06,0.57c0.04,0.15,0.1,0.28,0.18,0.37
			c0.08,0.09,0.19,0.16,0.31,0.19c0.12,0.04,0.28,0.06,0.45,0.06c0.2,0,0.4-0.03,0.6-0.1c0.21-0.07,0.42-0.15,0.63-0.25v-3.82
			c0-0.05,0.02-0.09,0.05-0.13c0.04-0.04,0.08-0.05,0.13-0.05h0.45c0.05,0,0.09,0.02,0.12,0.05c0.03,0.04,0.05,0.08,0.05,0.13V33.47
			z M111.34,29.14c0,0.1-0.06,0.15-0.19,0.15c-0.21,0-0.42,0.03-0.62,0.09c-0.2,0.06-0.41,0.16-0.64,0.29v3.79
			c0,0.05-0.02,0.09-0.05,0.13c-0.04,0.04-0.08,0.05-0.13,0.05h-0.45c-0.05,0-0.09-0.02-0.12-0.05c-0.03-0.04-0.05-0.08-0.05-0.13
			v-4.61c0-0.05,0.02-0.09,0.05-0.13c0.03-0.04,0.07-0.05,0.12-0.05h0.43c0.05,0,0.09,0.02,0.12,0.05c0.03,0.04,0.05,0.08,0.05,0.13
			v0.19c0.23-0.16,0.45-0.27,0.66-0.33c0.21-0.07,0.42-0.1,0.63-0.1c0.13,0,0.19,0.05,0.19,0.16V29.14z M105.51,27.68
			c0,0.05-0.02,0.09-0.05,0.12c-0.04,0.03-0.08,0.05-0.13,0.05h-0.36c-0.05,0-0.09-0.02-0.13-0.05c-0.04-0.03-0.05-0.07-0.05-0.12
			v-0.73c0-0.05,0.02-0.09,0.05-0.13c0.04-0.04,0.08-0.05,0.13-0.05h0.36c0.05,0,0.09,0.02,0.13,0.05c0.04,0.04,0.05,0.08,0.05,0.13
			V27.68z M107.11,27.68c0,0.05-0.02,0.09-0.06,0.12c-0.04,0.03-0.08,0.05-0.13,0.05h-0.36c-0.05,0-0.09-0.02-0.13-0.05
			c-0.04-0.03-0.05-0.07-0.05-0.12v-0.73c0-0.05,0.02-0.09,0.05-0.13c0.04-0.04,0.08-0.05,0.13-0.05h0.36
			c0.05,0,0.09,0.02,0.13,0.05c0.04,0.04,0.06,0.08,0.06,0.13V27.68z M107.2,30.82c0-0.46-0.1-0.83-0.29-1.1
			c-0.2-0.27-0.51-0.41-0.94-0.41c-0.43,0-0.74,0.13-0.93,0.4c-0.2,0.27-0.29,0.64-0.29,1.11v0.69c0,0.46,0.1,0.83,0.29,1.1
			c0.19,0.27,0.5,0.41,0.94,0.41c0.43,0,0.74-0.13,0.94-0.4s0.3-0.64,0.3-1.11V30.82z M108,31.5c0,0.33-0.04,0.63-0.13,0.9
			c-0.09,0.27-0.21,0.5-0.38,0.7c-0.17,0.19-0.38,0.34-0.64,0.45c-0.26,0.11-0.55,0.16-0.89,0.16s-0.63-0.05-0.88-0.16
			c-0.25-0.11-0.46-0.25-0.64-0.45c-0.17-0.19-0.3-0.42-0.38-0.7c-0.09-0.27-0.13-0.57-0.13-0.9v-0.69c0-0.33,0.04-0.63,0.13-0.9
			c0.09-0.27,0.21-0.5,0.38-0.7c0.17-0.19,0.38-0.34,0.64-0.45c0.25-0.11,0.55-0.16,0.88-0.16s0.63,0.05,0.89,0.16
			c0.26,0.11,0.47,0.25,0.64,0.45c0.17,0.19,0.3,0.43,0.38,0.7c0.09,0.27,0.13,0.57,0.13,0.9V31.5z"/>
		<path class="st6" d="M24.02,5.04L24.02,5.04c0-0.42-0.34-0.77-0.77-0.77h-2.04c-0.42,0-0.77,0.35-0.77,0.77v13.9
			c0,0.42,0.35,0.77,0.77,0.77h2.31c0.42,0,0.77-0.35,0.77-0.77v-6.47c0-1.79,0.1-1.69,0.29-2.35c0.19-0.66,0.56-1.19,1.09-1.6
			c0.53-0.4,1.13-0.6,1.79-0.6c0.52,0,0.96,0.14,1.33,0.42c0.37,0.28,0.64,0.68,0.8,1.18c0.16,0.51,0.25,1.62,0.25,3.35v6.07h0
			c0,0.42,0.34,0.77,0.77,0.77h2.31c0.42,0,0.77-0.35,0.77-0.77v-7.85c0-1.23-0.07-2.18-0.21-2.84c-0.14-0.66-0.39-1.25-0.75-1.78
			c-0.36-0.52-0.89-0.95-1.59-1.29c-0.7-0.33-1.48-0.5-2.33-0.5c-1.93,0-3.52,0.9-4.8,2.71V5.04z"/>
		<path class="st6" d="M61.54,8.04c0.42,0,0.77-0.35,0.77-0.77v-1.8c0-0.42-0.35-0.77-0.77-0.77h-3.56l0-3.94h0
			c0-0.42-0.35-0.77-0.77-0.77h-2.21c-0.42,0-0.77,0.35-0.77,0.77L54.23,4.7h-2.58c-0.42,0-0.77,0.34-0.77,0.77v1.8
			c0,0.42,0.34,0.77,0.77,0.77h2.58v6.04c0,2.03,0.35,3.47,1.04,4.34c0.69,0.86,1.85,1.3,3.46,1.3h2.73c0.42,0,0.77-0.35,0.77-0.77
			v-1.67c0-0.42-0.35-0.77-0.77-0.77h-1.48c-0.8,0-1.36-0.25-1.69-0.74c-0.21-0.33-0.31-1.13-0.31-2.41V8.04H61.54z"/>
		<path class="st6" d="M40.42,11.08h5.76C46.19,6.48,40.48,6.51,40.42,11.08 M50.08,12.67L50.08,12.67l0,0.03l0,0.01
			c0,0.01,0,0.03,0,0.04v0l0,0.02l0,0.02l0,0l0,0.02l0,0l0,0.02l0,0l0,0.02l0,0c0,0.02-0.01,0.04-0.01,0.05l-0.01,0.02l0,0
			l-0.01,0.02l-0.01,0.02l-0.01,0.02l0,0l-0.01,0.02l0,0L50,13l0,0l-0.01,0.02l0,0l-0.01,0.01l-0.01,0.01l0,0l0,0l-0.01,0.01l0,0
			l-0.01,0.01l0,0l-0.01,0.01l0,0l-0.01,0.01l-0.01,0.01l0,0l0,0l-0.01,0.01l0,0l-0.01,0.01l0,0l-0.01,0.01l0,0
			c-0.01,0.01-0.02,0.03-0.03,0.04l0,0l0,0l-0.01,0.01l0,0l-0.01,0.01l-0.01,0l-0.01,0.01l-0.01,0l-0.01,0.01l-0.01,0.01l-0.01,0.01
			l-0.01,0.01l-0.01,0.01l-0.01,0.01l-0.01,0.01l-0.01,0.01l-0.01,0.01l-0.01,0.01l-0.01,0l-0.01,0.01l-0.01,0l0,0l-0.01,0.01l0,0
			l-0.01,0.01l-0.01,0l-0.01,0.01l-0.01,0l0,0l-0.01,0.01l0,0l-0.01,0.01l-0.01,0l-0.01,0.01l-0.01,0l-0.01,0l-0.01,0l-0.01,0
			l-0.01,0l-0.01,0l0,0l-0.01,0c-0.01,0-0.02,0.01-0.03,0.01l0,0l0,0l-0.01,0l0,0l-0.01,0l0,0l-0.02,0l0,0l-0.02,0l0,0l-0.02,0l0,0
			l-0.02,0l0,0l-0.02,0l0,0l-0.02,0h0l-0.02,0h0l-0.02,0h0l-0.02,0h-8.96c0.06,2.5,1.75,3.75,3.27,3.65c1.12-0.07,2.15-0.71,2.39-2
			c0-0.42,0.35-0.77,0.77-0.77h2.33c0.42,0,0.77,0.35,0.77,0.77c-0.96,3.86-3.62,4.89-6.41,4.89c-3.42,0-6.61-1.63-7.02-6.54h0
			c-0.53-5.73,2.78-8.57,6.33-8.73C46.4,4.54,49.99,6.69,50.08,12.67z"/>
		<path class="st6" d="M73.48,7.9h-3.11c-2.16,0-3.24,1.43-3.24,4.31c0,1.4,0.29,2.47,0.87,3.2c0.58,0.72,1.43,1.09,2.57,1.09h2.92
			V7.9z M77.24,5.46c0-0.42-0.35-0.77-0.77-0.77h-2.8h-3.44c-1.01,0-1.86,0.1-2.54,0.31c-0.68,0.21-1.31,0.53-1.9,0.97
			c-1.66,1.32-2.49,3.39-2.49,6.22c0,2.49,0.68,4.44,2.05,5.84c0.58,0.6,1.22,1.03,1.94,1.28c0.72,0.26,1.64,0.39,2.74,0.39h3.45
			c0,0.86-0.13,1.43-0.38,1.72c-0.26,0.28-0.79,0.42-1.62,0.42h-6.98c-0.42,0-0.77,0.35-0.77,0.77v1.67c0,0.42,0.35,0.77,0.77,0.77
			h7.49c1.14,0,2.02-0.11,2.65-0.33c0.63-0.22,1.15-0.62,1.55-1.19c0.36-0.47,0.62-1.03,0.79-1.68c0.17-0.65,0.25-1.4,0.25-2.25
			V5.46z"/>
		<path class="st6" d="M92.11,7.9V4.69 M92.11,4.69v0.76 M81.22,19.7L81.22,19.7c-0.42,0-0.77-0.34-0.77-0.77v-1.67
			c0-0.42,0.35-0.77,0.77-0.77c-3.23,0,4.85,0,5.92,0h0.3h0.23h0.19h0.16c0.36,0,0.63-0.02,0.81-0.05c0.67-0.08,1-0.49,1-1.23
			c0-0.61-0.22-1.04-0.66-1.28c-0.25-0.13-0.8-0.2-1.64-0.2h-2.28c-0.87,0-1.56-0.06-2.04-0.18c-0.49-0.12-0.93-0.34-1.34-0.66
			c-0.5-0.39-0.89-0.94-1.19-1.63c-0.29-0.69-0.44-1.43-0.44-2.21c0-1.51,0.5-2.7,1.49-3.59c0.3-0.26,0.71-0.46,1.21-0.59
			c0.5-0.13,1.14-0.2,1.9-0.2h7.26c0.42,0,0.77,0.35,0.77,0.77v1.67c0,0.42-0.35,0.77-0.77,0.77h-5.89c-0.78,0-1.26,0.04-1.45,0.12
			c-0.43,0.15-0.65,0.56-0.65,1.21c0,0.52,0.21,0.93,0.62,1.22c0.24,0.16,0.85,0.24,1.82,0.24h2.22c1.41,0,2.52,0.33,3.36,1.01
			c0.91,0.75,1.37,1.83,1.37,3.27c0,1.07-0.28,2.07-0.82,3c-0.41,0.69-0.92,1.16-1.52,1.39c-0.6,0.24-1.58,0.35-2.94,0.35H81.22z"/>
		<path class="st6" d="M116.06,18.94L116.06,18.94 M99.32,4.69h-2.04c-0.42,0-0.77,0.35-0.77,0.77v13.48c0,0.42,0.35,0.77,0.77,0.77
			h2.22c0.42,0,0.77-0.35,0.77-0.77V7.9h4.04v11.04c0,0.42,0.35,0.77,0.77,0.77h2.22c0.42,0,0.77-0.35,0.77-0.77V7.9h2
			c0.79,0,1.37,0.21,1.76,0.62c0.2,0.23,0.33,0.48,0.39,0.76c0.06,0.28,0.09,0.78,0.09,1.52v8.15h0l0,0.02l0,0.02l0,0.02l0,0.02
			l0,0.02l0,0.02l0,0.02l0,0.02l0,0.02l0,0.02l0,0.02l0.01,0.02l0.01,0.02l0.01,0.02l0.01,0.02l0.01,0.02l0.01,0.02l0.01,0.02
			l0.01,0.02l0.01,0.02l0.01,0.02l0.01,0.02l0.01,0.02l0.01,0.02l0.01,0.02l0.01,0.02l0.01,0.01l0.01,0.01l0.01,0.01l0.01,0.01
			l0.01,0.01l0.01,0.01l0.01,0.01l0.01,0.01l0.01,0.01l0.01,0.01l0.01,0.01l0.01,0.01l0.01,0.01l0.02,0.01l0.02,0.01l0.02,0.01
			l0.02,0.01h0l0.02,0.01l0.02,0.01l0.02,0.01h0l0.02,0.01l0.02,0.01l0.02,0.01l0.02,0.01h0l0.02,0.01l0.02,0.01l0.02,0.01
			l0.02,0.01l0.02,0l0.02,0l0.02,0l0.02,0l0.02,0l0.02,0l0.02,0h0l0.02,0l0.02,0l0.02,0h0h2.22h0c0.42,0,0.77-0.35,0.77-0.77v-8.79
			c0-1.73-0.41-3.08-1.23-4.07c-0.43-0.53-0.98-0.9-1.62-1.09c-0.64-0.2-1.6-0.29-2.88-0.29H99.32z"/>
		<path class="st7" d="M3.29,11.33c0,0.91-0.74,1.65-1.65,1.65C0.74,12.98,0,12.25,0,11.33c0-0.91,0.74-1.65,1.65-1.65
			C2.55,9.69,3.29,10.43,3.29,11.33"/>
		<path class="st8" d="M8.13,8.38c0,0.91-0.74,1.65-1.65,1.65c-0.91,0-1.65-0.73-1.65-1.65c0-0.91,0.74-1.65,1.65-1.65
			C7.39,6.73,8.13,7.47,8.13,8.38"/>
		<path class="st9" d="M12.97,5.3c0,0.91-0.74,1.65-1.65,1.65c-0.91,0-1.65-0.73-1.65-1.65c0-0.91,0.74-1.65,1.65-1.65
			C12.23,3.66,12.97,4.4,12.97,5.3"/>
		<path class="st10" d="M17.81,2.24c0,0.91-0.74,1.65-1.65,1.65c-0.91,0-1.65-0.73-1.65-1.65c0-0.91,0.74-1.65,1.65-1.65
			C17.07,0.59,17.81,1.33,17.81,2.24"/>
	</g>
</g>
</svg>
