<?xml version="1.0" encoding="UTF-8"?>
<!DOCTYPE svg PUBLIC "-//W3C//DTD SVG 1.1//EN" "http://www.w3.org/Graphics/SVG/1.1/DTD/svg11.dtd">
<!-- Creator: CorelDRAW X7 -->
<svg xmlns="http://www.w3.org/2000/svg" xml:space="preserve" width="186px" height="80px" version="1.1" style="shape-rendering:geometricPrecision; text-rendering:geometricPrecision; image-rendering:optimizeQuality; fill-rule:evenodd; clip-rule:evenodd"
viewBox="0 0 62122 26719"
 xmlns:xlink="http://www.w3.org/1999/xlink">
 <defs>
  <style type="text/css">
   <![CDATA[
    .fil0 {fill:none}
    .fil1 {fill:#131B28;fill-rule:nonzero}
   ]]>
  </style>
 </defs>
 <g id="Layer_x0020_1">
  <metadata id="CorelCorpID_0Corel-Layer"/>
  <rect class="fil0" width="62122" height="26719"/>
  <g id="_2299568183504">
   <path class="fil1" d="M19610 11713l0 -1c0,0 -427,1514 -427,1514 0,0 427,-1513 427,-1513l0 0z"/>
   <path class="fil1" d="M21806 14998c0,0 -470,-3 -470,-3 0,0 470,3 470,3z"/>
   <path class="fil1" d="M21685 17257l0 0c0,0 -2818,11 -2818,11 0,0 2818,-11 2818,-11l0 0z"/>
   <path class="fil1" d="M22276 15001c0,0 -471,-3 -471,-3 0,0 471,3 471,3z"/>
   <path class="fil1" d="M21932 17065c0,0 491,-1872 491,-1872 0,0 -491,1873 -491,1873l0 -1 0 0z"/>
   <path class="fil1" d="M32309 8442c0,0 -914,4300 -914,4300 0,0 914,-4300 914,-4300z"/>
   <path class="fil1" d="M29958 8442c0,0 -694,3212 -694,3212 0,0 694,-3212 694,-3212l0 0z"/>
   <path class="fil1" d="M32153 8249l-1956 0c-108,0 -217,87 -239,193 0,0 -695,3212 -695,3212 0,0 -694,3213 -694,3213 -23,106 -131,192 -239,192l-1385 0c-1369,0 -1211,-947 -930,-2245 3,-13 5,-26 8,-39 0,0 31,-164 31,-164 2,-10 4,-21 6,-30 0,0 62,-333 62,-333 0,0 67,-357 67,-357 21,-108 51,-265 72,-364 0,0 315,-1542 315,-1542 0,0 316,-1542 316,-1542 22,-107 -49,-194 -158,-194l-2007 0c-109,0 -216,87 -238,193 0,0 -432,2048 -432,2048 0,0 -432,2048 -432,2048 0,0 0,2 0,3 0,0 -40,190 -40,190 -498,2270 -365,4435 2336,4502 44,2 79,2 79,2l4241 0c109,0 216,-87 239,-194 0,0 915,-4299 915,-4299 0,0 914,-4300 914,-4300 22,-106 -48,-193 -156,-193l0 0z"/>
   <g>
    <path class="fil1" d="M39955 15082c109,0 180,87 158,193 0,0 -190,928 -190,928l32 -1121zm0 0l0 0 0 0z"/>
   </g>
   <path class="fil1" d="M39733 17132c0,0 190,-929 190,-929 0,0 -190,929 -190,929 0,0 0,0 0,0l0 0z"/>
   <path class="fil1" d="M39495 17327c0,0 1,0 1,0 -576,5 -2305,18 -3605,18 1582,0 3604,-18 3604,-18l0 0z"/>
   <path class="fil1" d="M34724 13886c-2,-102 114,-277 223,-277 0,0 -244,-4 -244,-4 -110,1107 21,281 21,281z"/>
   <path class="fil1" d="M36069 17345c-13,0 -25,0 -38,0 13,0 25,0 38,0z"/>
   <g>
    <path class="fil1" d="M39955 15082c109,0 180,87 158,193 0,0 -190,928 -190,928 0,0 -31,152 -31,152l63 -1273zm0 0l0 0 0 0z"/>
   </g>
   <polygon class="fil1" points="36995,17342 36987,17342 4350,17342 "/>
   <polygon class="fil1" points="36515,17344 36487,17344 4370,17344 "/>
   <path class="fil1" d="M36368 17344c-15,0 -31,0 -46,1 15,-1 31,-1 46,-1z"/>
   <polygon class="fil1" points="36219,17345 36179,17345 4383,17345 "/>
   <path class="fil1" d="M36487 17344c-40,0 -79,0 -119,0 40,0 79,0 119,0z"/>
   <path class="fil1" d="M36987 17342c-158,1 -316,1 -472,2 156,-1 314,-1 472,-2z"/>
   <path class="fil1" d="M39496 17327l0 0c-421,3 -1463,11 -2502,15 1038,-3 2080,-12 2502,-15l0 0z"/>
   <path class="fil1" d="M39733 17132c0,0 159,-777 159,-777 0,0 -159,778 -159,778 0,0 0,0 0,-1z"/>
   <polygon class="fil1" points="36322,17345 36219,17345 4445,17345 "/>
   <polygon class="fil1" points="36031,17345 35891,17345 4482,17345 "/>
   <polygon class="fil1" points="36178,17345 36068,17345 4452,17345 "/>
   <path class="fil1" d="M7570 13910c0,0 304,-1347 304,-1347 0,0 -347,1539 -347,1539 0,0 -334,1568 -334,1568 0,0 292,-1374 292,-1374 23,-107 61,-280 85,-386z"/>
   <path class="fil1" d="M11206 8226l-2148 0c-109,0 -217,87 -241,192 0,0 -204,899 -204,899 0,0 -204,899 -204,899 -23,106 46,193 155,193l2164 0c109,0 216,-86 240,-193 0,0 196,-899 196,-899 0,0 197,-898 197,-898l0 0c24,-106 -46,-193 -155,-193l0 0z"/>
   <path class="fil1" d="M10739 11216l0 0c0,0 -630,2914 -630,2914 0,0 630,-2914 630,-2914l0 0z"/>
   <path class="fil1" d="M4499 20873c0,0 1083,14 1771,14 -523,0 -1386,-10 -1772,-15 1,0 1,1 1,1l0 0z"/>
   <path class="fil1" d="M8177 11216c0,0 -304,1347 -304,1347 0,0 304,-1347 304,-1347z"/>
   <path class="fil1" d="M10583 11023l-2165 0c-108,0 -216,87 -241,193 0,0 -304,1347 -304,1347 0,0 -303,1347 -303,1347 -24,106 -62,280 -85,386 0,0 -292,1374 -292,1374 0,0 -292,1375 -292,1375 -23,106 -69,278 -104,380 0,0 -405,1204 -1085,1190 -28,-1 -57,-1 -84,-2 -330,-6 -589,-10 -589,-10l0 0c-109,-2 -218,82 -243,188 0,0 -224,944 -224,944 0,0 -225,943 -225,943 -25,106 43,192 151,194 386,5 1249,15 1772,15 1698,0 2593,-941 3167,-3649 0,0 672,-3108 672,-3108 0,0 630,-2914 630,-2914 23,-106 -47,-193 -156,-193l0 0z"/>
   <g>
    <path class="fil1" d="M41334 17235c-108,0 -179,-88 -156,-194 0,0 1628,-7628 1628,-7628l-1472 7822zm0 0l0 0 0 0z"/>
   </g>
   <path class="fil1" d="M43597 17041c0,0 659,-3256 659,-3256 0,0 -659,3256 -659,3256z"/>
   <path class="fil1" d="M41202 17138c-14,-53 -6,-184 17,-290 0,0 773,-3620 773,-3620 0,0 -814,3813 -814,3813 -23,107 47,194 156,194l198 0c-109,0 -317,-44 -330,-97z"/>
   <path class="fil1" d="M43469 17191c-60,24 -197,44 -306,44l198 0c109,0 215,-88 237,-194 0,0 39,-193 39,-193 -22,106 -109,319 -168,343z"/>
   <path class="fil1" d="M43927 15413c0,0 291,-1437 291,-1437 0,1 0,3 -1,3 0,0 -290,1434 -290,1434l0 0z"/>
   <g>
    <path class="fil1" d="M50353 9925c0,0 89,370 89,370 25,106 -44,192 -152,192l63 -562zm0 0l0 0 0 0z"/>
   </g>
   <path class="fil1" d="M43637 16848c0,0 290,-1435 290,-1435 0,0 -290,1435 -290,1435z"/>
   <path class="fil1" d="M50263 9545c0,0 89,380 89,380 0,0 -89,-380 -89,-380z"/>
   <path class="fil1" d="M44217 13976c22,-106 58,-278 80,-384 0,0 311,-1454 311,-1454 0,0 -352,1647 -352,1647 0,0 -39,191 -39,191z"/>
   <path class="fil1" d="M42833 9289c-22,102 -49,232 -68,318 0,0 -772,3621 -772,3621 0,0 814,-3815 814,-3815 0,0 26,-124 26,-124z"/>
   <path class="fil1" d="M50442 10295c0,0 -90,-370 -90,-370 0,0 -89,-380 -89,-380 0,0 -45,-192 -45,-192 -175,-684 -692,-1078 -1812,-1078 0,0 -1745,-2 -1745,-2 0,0 -1607,-2 -1607,-2l-1808 0c-109,0 -216,87 -239,194l0 0c0,0 -80,377 -80,377 0,0 -94,446 -94,446 0,0 -26,125 -26,125 0,0 -814,3815 -814,3815 0,0 -773,3620 -773,3620 -24,106 -31,237 -18,290 13,53 221,97 330,97l1631 0c109,0 246,-20 306,-44 59,-24 146,-237 168,-343 0,0 290,-1435 290,-1435 0,0 290,-1434 290,-1434 0,0 0,-2 1,-3 0,0 38,-191 38,-191 0,0 352,-1647 352,-1647 0,0 311,-1456 311,-1456 23,-105 130,-192 238,-192 0,0 5133,-3 5133,-3 108,0 177,-86 152,-192l0 0z"/>
   <path class="fil1" d="M57049 6944c-109,0 -286,1 -395,1l-1643 0c-109,0 -247,73 -309,163 0,0 -3633,5322 -3633,5322 -61,90 -131,77 -155,-29 0,0 -267,-1173 -267,-1173 -25,-105 -133,-192 -242,-192l-2335 0c-109,0 -173,85 -143,190 0,0 1046,3666 1046,3666 30,104 32,276 5,381 0,0 -456,1774 -456,1774 -27,106 40,192 149,192l2308 0c108,0 219,-86 246,-192 0,0 456,-1774 456,-1774 27,-105 103,-262 168,-349 0,0 5898,-7828 5898,-7828 65,-87 30,-157 -79,-156 0,0 -619,4 -619,4l0 0z"/>
   <path class="fil1" d="M38495 11535c0,0 0,-2 0,-2 -14,118 -122,204 -231,204l-2961 0c-102,0 -154,-70 -139,-155 1,-3 1,-5 3,-7 0,0 -1,0 -2,1 0,-4 0,-7 2,-10 0,0 5,-21 13,-51 283,-751 859,-1245 1941,-1245 1219,0 1457,595 1374,1265l0 0zm-868 -3418c-3801,0 -4701,2307 -5207,4636 -505,2373 -462,4592 3471,4592l140 0c12,0 25,0 37,0l254 0c15,-1 31,-1 46,-1 39,0 79,0 118,0l28 0c156,0 314,-1 472,-2l8 0c1039,-4 2081,-12 2503,-15 107,-1 213,-88 235,-194 0,0 159,-778 159,-778 0,0 31,-152 31,-152 0,0 190,-928 190,-928 22,-106 -49,-193 -158,-193l-3535 0c-1407,0 -1824,-374 -1670,-1473l5652 0c0,0 -1,1 -1,1 2,0 3,-1 4,-1 90,-1 173,-63 206,-145 6,-16 11,-33 14,-50 0,0 -1,1 -1,1 839,-3166 598,-5298 -2996,-5298l0 0z"/>
   <path class="fil1" d="M19664 11523c0,0 -54,189 -54,189 0,1 0,1 0,1 0,0 -427,1513 -427,1513 0,0 -427,1512 -427,1512 -29,104 -142,190 -251,190l-2259 0c-1713,0 -2130,-1340 -1713,-3317 417,-2022 1235,-3279 2922,-3406 2304,-174 2765,1447 2209,3318l0 0zm1549 3288c0,0 1065,-2585 1307,-4079 331,-2000 -670,-4900 -4537,-4900 -3845,0 -5514,2769 -6152,5779 -637,3031 198,5689 4021,5668 0,0 3016,-11 3016,-11 0,0 2818,-11 2818,-11 109,-1 220,-87 248,-192 0,0 491,-1873 491,-1873 27,-105 -39,-191 -148,-192 0,0 -470,-2 -470,-2 0,0 -471,-3 -471,-3 -92,-1 -145,-61 -134,-140 2,-14 5,-29 11,-44l0 0z"/>
   <path class="fil1" d="M40245 13080c0,72 -58,130 -129,130 -72,0 -130,-58 -130,-130 0,-71 58,-129 130,-129 71,0 129,58 129,129z"/>
  </g>
 </g>
</svg>
