<?xml version="1.0" encoding="UTF-8"?>
<!DOCTYPE svg PUBLIC "-//W3C//DTD SVG 1.1//EN" "http://www.w3.org/Graphics/SVG/1.1/DTD/svg11.dtd">
<!-- Creator: CorelDRAW X7 -->
<svg xmlns="http://www.w3.org/2000/svg" xml:space="preserve" width="186px" height="80px" version="1.1" style="shape-rendering:geometricPrecision; text-rendering:geometricPrecision; image-rendering:optimizeQuality; fill-rule:evenodd; clip-rule:evenodd"
viewBox="0 0 289737 124619"
 xmlns:xlink="http://www.w3.org/1999/xlink">
 <defs>
  <style type="text/css">
   <![CDATA[
    .fil0 {fill:none}
    .fil2 {fill:#E64430}
    .fil1 {fill:#E95140}
   ]]>
  </style>
 </defs>
 <g id="Layer_x0020_1">
  <metadata id="CorelCorpID_0Corel-Layer"/>
  <rect class="fil0" width="289737" height="124618"/>
  <g id="_2299574854912">
   <path class="fil1" d="M12461 33089l0 2315 273 500c73,149 185,396 244,527l16653 36195c2117,4288 2075,7256 7287,5942l18169 -4590c228,981 890,1932 1341,2710 2598,4473 5591,10404 8456,14689 1501,2247 1197,1294 1775,2081l2315 0 8126 -2866c1299,-431 2672,-920 3969,-1434l18115 -6571c864,-304 1413,-736 2000,-893 0,-1558 -251,-1617 -935,-2539 -2337,-3146 -6682,-9142 -8947,-11883 -501,-606 -1088,-1360 -1498,-1973 1086,-252 2248,-664 3317,-925l6865 -1814c5021,-1376 3749,-1185 -1586,-7978 -1748,-2226 -3398,-4229 -5168,-6404 -2539,-3117 -2379,-2208 -8443,-1201 -1654,274 -3277,509 -4988,798 -1797,302 -3172,346 -4657,1130 0,1475 845,2281 1984,3803 866,1159 1534,2233 2399,3389 865,1155 1549,2244 2397,3387 453,609 2131,2921 2285,3501l-27001 6364 -20191 -33621c-897,-1503 -1887,-3474 -3146,-4567l-5015 0 -957 199c-436,20 -655,-11 -1111,48l-10662 911c-1562,47 -2647,90 -3665,770zm66735 17359c213,802 1429,2226 1928,2893 725,967 1422,1893 2123,2892 1369,1950 2896,3777 4243,5788l10993 -2701c-206,-881 -365,-789 -882,-1433l-7412 -9367 -5347 1018c-1538,263 -3886,910 -5646,910zm-20058 22181c151,650 8888,15814 9449,15814 1437,0 24163,-8460 27581,-9256 -73,-878 63,-304 -401,-950l-1801 -2441c-445,-617 -804,-1069 -1242,-1652l-3654 -5025c-822,-1209 -1663,-2132 -2353,-3433l-23984 6103c-927,272 -2631,818 -3595,840zm-42241 -37610c29,1310 1580,3932 2123,5014 5128,10222 10219,21394 15429,31824 193,388 377,782 574,1162 317,611 444,655 777,1152 379,-182 1455,-326 2045,-460l13109 -3093c786,-171 1456,-436 2204,-496 -158,-672 -769,-1614 -1168,-2306 -430,-747 -922,-1549 -1339,-2323l-16973 -29318c-401,-740 -892,-1630 -1350,-2313 -3150,0 -11358,1157 -15431,1157z"/>
   <path class="fil2" d="M150171 60091c392,587 1281,1266 1936,1553 2009,875 1221,-3288 6938,-3288 1742,0 2816,419 3834,1181 2366,1770 2213,4968 609,5963 -2598,1612 -14474,-1146 -14474,8864 0,5748 7648,8539 12774,5444 1930,-1164 1994,-1845 3043,-2550l0 2699c1043,700 64,580 2703,580 448,0 962,-515 962,-966l0 -15622c0,-5249 -3100,-9065 -8101,-9065 -2815,0 -4800,-2 -7221,1650 -948,646 -2732,2398 -3003,3557zm6752 17552c4747,0 7715,-3474 7715,-7521l0 -1351c-1665,0 -3971,530 -5604,762 -2442,346 -3318,-18 -5091,1273 -2736,1991 -1137,6837 2980,6837z"/>
   <path class="fil2" d="M194918 60091c0,559 1438,1439 1891,1575 1590,482 1080,-832 2786,-2107 3225,-2412 9596,-1054 9596,2846 0,3836 -1056,3310 -7486,4085 -2705,325 -5290,1047 -6872,3352 -2738,3992 -1190,11273 7415,11273 1505,0 3260,-793 4239,-1354 1808,-1038 2607,-2370 3090,-2696 0,2331 -910,4254 3279,3279 466,-1991 193,-14695 193,-17745 0,-3997 -3600,-7715 -8101,-7715 -3550,0 -6093,267 -8733,3032 -330,346 -488,563 -784,953 -307,409 -513,569 -513,1222zm2316 13309c0,4480 5474,5650 9567,2432 2250,-1768 2390,-4411 2390,-7061 -1827,0 -5104,881 -7332,962 -2362,85 -4625,1356 -4625,3667z"/>
   <path class="fil2" d="M241979 63178l0 8679c0,3195 2487,6156 5267,7655 2122,1145 2791,622 5339,637 1095,5 2188,-2 3283,3 2804,15 2507,291 2507,-2702 0,-1141 -2086,-771 -3858,-771 -2607,0 -6036,348 -7858,-1787 -1633,-1915 -1400,-3690 -1400,-5928l13887 0c2872,0 1735,-7466 543,-9416 -337,-552 -579,-1102 -924,-1584 -2618,-3669 -9804,-4811 -13559,-1205 -1398,1343 -3227,3796 -3227,6419zm3473 771l0 1928 11764 0 0 -1928c0,-7606 -11764,-7275 -11764,0z"/>
   <path class="fil2" d="M181612 58740c0,-4391 -6,-3665 -7330,-3665 -1047,0 -773,1349 -773,2701 0,1174 2033,773 4245,773l-2 18321c-4763,0 -4243,-497 -4243,2510 0,520 92,531 194,964 1909,445 10170,193 12729,193 1332,0 1424,-3667 194,-3667l-5016 0 2 -13307c0,-446 4335,-4865 7920,-5001 1586,-59 1338,403 1338,-3100 0,-788 -603,-578 -2125,-578 -2708,0 -4778,2272 -7133,3856z"/>
   <path class="fil2" d="M129727 50835l0 27001c0,666 160,1652 462,2046 266,346 1300,848 1854,848l12730 0c1080,0 771,-1499 771,-3087 0,-453 -318,-773 -771,-773l-10995 0 2 -26615c0,-1080 -1500,-773 -3087,-773 -626,0 -966,701 -966,1353z"/>
   <path class="fil2" d="M217485 56041c0,1228 1581,5053 2052,6436l4288 12298c364,1098 694,1871 1062,2987 1032,3128 478,2775 3400,2775 1422,0 1486,-1268 1854,-2388l3325 -9405c795,-2122 1382,-4188 2178,-6309 203,-543 2287,-6292 2287,-6394 0,-441 -66,-224 -193,-772 -1812,0 -2881,-300 -3407,1032l-4769 14133c-265,799 -1336,4488 -1855,5088l-6244 -18058c-824,-2488 -309,-2195 -3207,-2195 -453,0 -771,320 -771,772z"/>
   <path class="fil2" d="M277276 80151l0 -2894c-1047,-703 -3775,-387 -5207,-387l-11 -28725c-292,-2221 -4654,-1555 -8091,-1555 -865,1292 -865,2375 0,3665l4250 0c-8,6624 -8,13245 -8,19867 0,2029 -338,8299 313,9524 701,1320 4320,871 6635,895 1319,13 1302,158 2119,-390z"/>
  </g>
 </g>
</svg>
