<?xml version="1.0" encoding="UTF-8"?>
<!DOCTYPE svg PUBLIC "-//W3C//DTD SVG 1.1//EN" "http://www.w3.org/Graphics/SVG/1.1/DTD/svg11.dtd">
<!-- Creator: CorelDRAW X7 -->
<svg xmlns="http://www.w3.org/2000/svg" xml:space="preserve" width="186px" height="80px" version="1.1" style="shape-rendering:geometricPrecision; text-rendering:geometricPrecision; image-rendering:optimizeQuality; fill-rule:evenodd; clip-rule:evenodd"
viewBox="0 0 14997 6450"
 xmlns:xlink="http://www.w3.org/1999/xlink">
 <defs>
  <style type="text/css">
   <![CDATA[
    .str0 {stroke:#00D8FF;stroke-width:238.073}
    .fil0 {fill:none}
    .fil1 {fill:#00D8FF}
    .fil2 {fill:#2B2A29;fill-rule:nonzero}
   ]]>
  </style>
 </defs>
 <g id="Layer_x0020_1">
  <metadata id="CorelCorpID_0Corel-Layer"/>
  <rect class="fil0" width="14997" height="6450"/>
  <g id="_2299574841568">
   <circle class="fil1" cx="3178" cy="3222" r="379"/>
   <path class="fil0 str0" d="M3178 2452c508,0 981,73 1337,195 429,148 693,372 693,575 0,211 -280,449 -741,601 -348,116 -806,176 -1289,176 -495,0 -963,-57 -1315,-177 -446,-152 -715,-393 -715,-600 0,-202 252,-424 675,-571 358,-125 842,-199 1355,-199z"/>
   <path class="fil0 str0" d="M2508 2839c254,-441 553,-813 837,-1061 342,-297 668,-414 844,-313 183,106 249,467 151,942 -74,360 -251,787 -492,1205 -247,428 -530,806 -810,1051 -355,310 -698,422 -877,319 -174,-101 -241,-430 -157,-870 70,-372 247,-829 504,-1273z"/>
   <path class="fil0 str0" d="M2509 3613c-255,-440 -429,-885 -501,-1255 -87,-445 -26,-786 150,-887 183,-106 529,17 892,339 274,244 556,610 798,1028 247,428 433,862 505,1227 92,462 18,815 -161,919 -174,100 -493,-6 -832,-298 -287,-247 -594,-629 -851,-1073z"/>
  </g>
  <path class="fil2" d="M6070 4208l0 -689 525 689 524 0 -424 -633c83,-37 130,-75 186,-151 78,-106 119,-221 119,-343l0 -44c0,-198 -71,-302 -182,-409 -66,-62 -141,-108 -227,-138 -99,-30 -202,-45 -308,-45l-644 0 1 1763 430 0zm253 -924l-94 0 0 -1 -160 0 0 -410 189 0c80,0 179,21 225,59 46,41 69,88 69,142 0,121 -110,210 -229,210z"/>
  <polygon id="1" class="fil2" points="7230,4210 8445,4210 8445,3782 7681,3782 7681,3540 8269,3540 8269,3110 7681,3110 7681,2871 8445,2871 8445,2441 7230,2441 "/>
  <path id="2" class="fil2" d="M9434 3351l113 239 -227 0 114 -239zm-435 857l131 -267 607 0 130 267 468 0 -851 -1760 -102 0 -850 1760 467 0z"/>
  <path id="3" class="fil2" d="M11290 2432l-52 0c-273,0 -509,88 -705,263 -182,175 -274,387 -274,632 0,245 92,457 274,631 194,173 431,260 705,261 138,0 268,-24 388,-72 118,-49 218,-116 302,-200l28 -27 -310 -306 -29 27c-105,98 -229,146 -378,146 -149,0 -272,-44 -376,-134 -105,-91 -157,-197 -157,-325 0,-126 52,-233 157,-325 104,-91 227,-135 376,-135 146,0 270,48 377,146l29 27 310 -306 -28 -27c-149,-144 -366,-258 -638,-271l1 -5z"/>
  <polygon id="4" class="fil2" points="12043,2873 12493,2873 12498,4208 12984,4208 12968,2873 13417,2873 13417,2445 12043,2445 "/>
 </g>
</svg>
