<?xml version="1.0" encoding="UTF-8"?>
<!DOCTYPE svg PUBLIC "-//W3C//DTD SVG 1.1//EN" "http://www.w3.org/Graphics/SVG/1.1/DTD/svg11.dtd">
<!-- Creator: CorelDRAW X7 -->
<svg xmlns="http://www.w3.org/2000/svg" xml:space="preserve" width="186px" height="80px" version="1.1" style="shape-rendering:geometricPrecision; text-rendering:geometricPrecision; image-rendering:optimizeQuality; fill-rule:evenodd; clip-rule:evenodd"
viewBox="0 0 24161 10392"
 xmlns:xlink="http://www.w3.org/1999/xlink">
 <defs>
  <style type="text/css">
   <![CDATA[
    .fil0 {fill:none}
    .fil3 {fill:black}
    .fil1 {fill:#F05138}
    .fil2 {fill:white}
   ]]>
  </style>
 </defs>
 <g id="Layer_x0020_1">
  <metadata id="CorelCorpID_0Corel-Layer"/>
  <rect class="fil0" width="24161" height="10392"/>
  <g id="_2299571816288">
   <path class="fil1" d="M2282 2701c-327,19 -622,107 -813,222 -136,82 -168,104 -275,207 -72,69 -125,177 -199,247l0 3649c167,156 55,163 422,420 151,107 407,204 676,240 511,69 3252,40 3964,36 722,-3 1102,-150 1412,-427 351,-313 335,-766 335,-1233 0,-482 0,-964 0,-1447 0,-429 68,-992 -188,-1340 -311,-424 -660,-488 -1167,-577 -634,-60 -1456,-27 -2126,-27 -496,0 -1643,-39 -2041,30z"/>
   <path class="fil2" d="M5274 5207c-259,-58 -1356,-695 -1635,-868l-870 -588c114,251 1096,1023 1352,1269 -206,-46 -802,-390 -995,-490l-959 -554c121,216 865,786 1102,1000 150,136 704,527 928,668 92,58 273,133 327,217 -534,162 -889,267 -1579,165 -766,-113 -812,-230 -1326,-408 131,215 650,566 918,707 785,413 2010,655 2925,281 322,-131 738,-214 1061,-7 176,114 115,148 243,197 137,-333 -116,-715 -327,-931 -183,-187 192,-280 -98,-1049 -119,-315 -371,-610 -594,-810 -126,-113 -269,-236 -408,-314 -98,-55 -376,-235 -500,-257 193,250 377,431 489,775 112,344 99,687 -54,997z"/>
   <path class="fil3" d="M10434 5950l-615 0c-61,308 291,631 665,800 547,247 1563,244 2171,-17 88,-38 196,-94 252,-142 50,-43 145,-124 194,-185 244,-307 214,-774 -88,-1010 -673,-526 -2204,-361 -2408,-874 -160,-404 403,-633 905,-643 581,-12 996,178 1058,558l625 0c-108,-1248 -2745,-1215 -3181,-323 -206,423 7,786 360,965 385,195 815,245 1321,342 467,89 996,228 913,641 -35,175 -230,303 -396,367 -473,182 -1611,179 -1776,-479z"/>
   <path class="fil3" d="M20153 4457l-454 0 -6 357 460 0 0 2064 609 -2 0 -2062 1153 0c0,483 -35,1040 7,1513 36,413 292,541 776,562l371 -7c131,-29 91,-31 91,-371 -730,24 -636,-135 -636,-612 0,-361 0,-723 0,-1085l636 -1 0 -351 -636 -5 0 -575 -609 -6 0 581 -1160 0c0,-420 5,-566 643,-504l0 -347c-1049,-90 -1245,144 -1245,851z"/>
   <path class="fil3" d="M14532 6878l582 -1c91,-242 670,-1788 732,-1843l732 1840c782,6 579,129 846,-578l693 -1839 -591 0 -646 1943 -739 -1939 -590 -3 -725 1939c-118,-159 -484,-1562 -655,-1940l-596 0c30,168 159,434 225,611 76,203 152,404 230,605l347 909c33,88 52,254 155,296z"/>
   <polygon class="fil3" points="18587,6878 19195,6876 19195,4457 18596,4457 "/>
  </g>
 </g>
</svg>
